<svg width="30" height="30" viewBox="0 0 30 30" fill="none" xmlns="http://www.w3.org/2000/svg">
<path d="M26.9416 4.99999C26.828 4.98828 26.7135 4.98828 26.5999 4.99999H3.26661C3.11706 5.00229 2.96851 5.02472 2.82494 5.06666L14.8666 17.0583L26.9416 4.99999Z" fill="#26C17E"/>
<path d="M28.1749 6.15833L16.0416 18.2417C15.7293 18.5521 15.3069 18.7263 14.8666 18.7263C14.4263 18.7263 14.0039 18.5521 13.6916 18.2417L1.66661 6.24999C1.62964 6.38586 1.61004 6.52586 1.60828 6.66666V23.3333C1.60828 23.7754 1.78387 24.1993 2.09643 24.5118C2.40899 24.8244 2.83292 25 3.27494 25H26.6083C27.0503 25 27.4742 24.8244 27.7868 24.5118C28.0994 24.1993 28.2749 23.7754 28.2749 23.3333V6.66666C28.2683 6.49304 28.2346 6.32152 28.1749 6.15833ZM4.41661 23.3333H3.25828V22.1417L9.31661 16.1333L10.4916 17.3083L4.41661 23.3333ZM26.5916 23.3333H25.4249L19.3499 17.3083L20.5249 16.1333L26.5833 22.1417L26.5916 23.3333Z" fill="#26C17E"/>
</svg>
