<svg width="30" height="30" viewBox="0 0 30 30" fill="none" xmlns="http://www.w3.org/2000/svg">
<path d="M25.8895 16.9512C26.0097 16.292 26.0741 15.6182 26.0741 14.9443C26.0741 13.4502 25.7811 12 25.204 10.6377C24.6474 9.31934 23.8476 8.13574 22.831 7.11914C21.8228 6.10846 20.6278 5.30348 19.3124 4.74902C17.9472 4.17188 16.4999 3.87891 15.0058 3.87891C14.3026 3.87891 13.5966 3.94629 12.911 4.07812C11.9624 3.57546 10.9055 3.31197 9.83193 3.31055C8.08291 3.31055 6.43642 3.99316 5.20009 5.22949C4.59002 5.83643 4.10631 6.55828 3.77694 7.35331C3.44756 8.14834 3.27905 9.00077 3.28115 9.86133C3.28115 10.9746 3.56826 12.0703 4.10439 13.0371C3.99599 13.6641 3.9374 14.3057 3.9374 14.9443C3.9374 16.4385 4.23037 17.8887 4.80751 19.251C5.36416 20.5693 6.16103 21.7529 7.17763 22.7695C8.19423 23.7861 9.37783 24.583 10.6962 25.1396C12.0614 25.7168 13.5087 26.0098 15.0028 26.0098C15.6532 26.0098 16.3036 25.9512 16.9423 25.8369C17.9237 26.3906 19.0311 26.6865 20.1649 26.6865C21.914 26.6865 23.5604 26.0068 24.7968 24.7676C26.036 23.5312 26.7157 21.8848 26.7157 20.1357C26.7186 19.0225 26.4315 17.9238 25.8895 16.9512ZM15.0497 21.7236C11.1181 21.7236 9.36025 19.79 9.36025 18.3428C9.36025 17.5986 9.9081 17.0801 10.664 17.0801C12.3456 17.0801 11.912 19.4971 15.0497 19.4971C16.6581 19.4971 17.5458 18.624 17.5458 17.7305C17.5458 17.1943 17.2821 16.5967 16.2216 16.3359L12.7235 15.4629C9.9081 14.7568 9.39541 13.2334 9.39541 11.8037C9.39541 8.83301 12.1933 7.7168 14.8212 7.7168C17.2411 7.7168 20.0946 9.05566 20.0946 10.8369C20.0946 11.6016 19.4325 12.0439 18.6767 12.0439C17.2411 12.0439 17.5048 10.0576 14.6132 10.0576C13.1776 10.0576 12.3837 10.708 12.3837 11.6367C12.3837 12.5654 13.5175 12.8613 14.5019 13.0869L17.0917 13.6611C19.9276 14.2939 20.6454 15.9492 20.6454 17.5078C20.6454 19.9189 18.7909 21.7236 15.0497 21.7236Z" fill="#26C17E"/>
</svg>
